<?xml version="1.0" encoding="utf-8"?>
<!-- Generator: Adobe Illustrator 23.0.1, SVG Export Plug-In . SVG Version: 6.00 Build 0)  -->
<svg version="1.1" id="Layer_5" xmlns="http://www.w3.org/2000/svg" xmlns:xlink="http://www.w3.org/1999/xlink" x="0px" y="0px"
	 viewBox="0 0 259.91 259.92" style="enable-background:new 0 0 259.91 259.92;" xml:space="preserve">
<style type="text/css">
	.st0{fill:#FFFFFF;}
	.st1{fill:#BCBEC0;}
	.st2{fill:#939598;}
</style>
<ellipse class="st0" cx="129.97" cy="129.95" rx="129.96" ry="129.96"/>
<g>
	<g>
		<g>
			<path class="st1" d="M226.69,96.17c0.69,3.12,3.81,7.63,3.81,7.63s-1.04-2.95-1.39-5.03s-0.35-3.3-0.69-6.07
				c-0.35-2.78-1.73-5.03-2.77-6.41c-1.04-1.39-3.64-4.68-6.07-6.59c-0.93-0.72-1.8-1.33-2.57-1.9c-0.25,2.31-1.04,3.63-1.7,4.72
				c-0.32,0.52-0.57,0.93-0.72,1.4c-0.01,0.03-0.02,0.05-0.03,0.08c0.51,0.41,0.67,0.98,1.73,1.93c1.73,1.56,2.77,4.68,5.03,7.8
				c2.25,3.12,2.6,8.32,2.6,8.32s0.69-5.72,0.52-7.11c-0.17-1.38,0.35-2.6-0.69-4.33c-0.79-1.31-1.18-2.93-1.24-3.93
				c0.45,0.49,0.83,0.92,1.07,1.16C224.61,88.89,225.99,93.05,226.69,96.17z"/>
		</g>
		<g>
			<path class="st1" d="M175.72,83.17c-0.32-3.15-5.78-3.58-10.03-3.24l-1.76-2.13c0,0-2.79,1.44-5.38,3.29
				c-2.58,0.63-5,1.5-6.58,2.79c-2.77,2.25-4.68,3.81-5.9,7.63c-1.21,3.81-1.21,5.55-2.25,8.15s-2.08,4.51-2.08,4.51
				s3.12-1.56,3.81-4.33c0.69-2.77,2.25-7.28,4.85-9.71c0.66-0.62,1.29-1.16,1.91-1.64c-0.38,1.03-0.68,2.41-1.04,4.76
				c-0.87,5.72-1.73,10.05-2.43,10.4c0,0,2.08-1.56,3.12-5.55c1.04-3.99,1.56-6.93,3.64-8.67c1.28-1.07,3.34-2.52,5.19-3.49
				c2.45-0.24,4.77-0.5,6.6,0.02C169.83,86.63,176.07,86.63,175.72,83.17z"/>
			<path class="st1" d="M187.16,83.34c0.87-0.69,0.35-3.29-1.9-3.12s-5.03,1.21-5.2,3.81s1.04,4.85,2.08,6.59
				c1.04,1.73,1.73,2.08-0.17,4.51c-1.91,2.43-2.6,3.81-4.86,6.76c-2.25,2.94-4.85,7.11-4.85,7.11s6.59-3.64,9.54-7.11
				s5.03-7.11,5.89-8.15c0.87-1.04,0.17-2.95-0.17-6.07C187.16,84.56,186.3,84.04,187.16,83.34z"/>
			<path class="st1" d="M205.02,90.62c-0.52-1.21-2.77-4.85-5.03-5.2c-2.25-0.35-3.99-0.35-4.51-2.08
				c-0.52-1.73,0.87-3.29-1.39-3.64c-2.25-0.35-3.99,1.73-3.99,1.73c-0.69,2.95-0.69,7.45,1.91,8.67c2.6,1.21,4.85,0.35,6.41,0.69
				c1.56,0.35,2.43,1.21,2.6,3.47c0.17,2.25,0.35,3.81,0,7.28s-0.52,7.8-0.52,7.8s0.35-2.25,1.91-5.03s2.08-4.16,2.43-6.07
				C205.19,96.35,205.54,91.83,205.02,90.62z"/>
		</g>
		<g>
			<path class="st1" d="M203.28,57.17c-13.35-9.54-29.64-7.11-35.71-4.51c-6.07,2.6-6.76,3.64-13.87,8.49
				c-7.11,4.86-4.85,13.35-0.87,17.86c0,0,0.93,0.46,2.38,1.13c0.79-0.28,1.62-0.54,2.55-0.77c2.58-1.8,5.21-3.16,5.32-3.22
				l1.33-0.68l0.95,1.16l1.15,1.4c0.52-0.02,1.04-0.04,1.54-0.04c7.84,0,9.33,3.14,9.52,5.01c0.12,1.2-0.23,2.3-1.02,3.17
				c-0.09,0.1-0.19,0.18-0.29,0.27c0.78,0.35,1.57,0.72,2.39,1.12c-0.33-1.1-0.54-2.32-0.45-3.63c0.21-3.06,2.92-5.23,6.91-5.54
				c0.12-0.01,0.24-0.02,0.35-0.02c1.4,0,2.58,0.69,3.29,1.81c0.38-0.43,2.2-2.36,4.83-2.36c0.26,0,0.52,0.02,0.79,0.06
				c3.19,0.49,2.95,3.07,2.87,3.92c-0.04,0.4-0.07,0.75,0.01,1.02c0.09,0.29,0.38,0.41,2.16,0.66c0.27,0.04,0.56,0.08,0.85,0.12
				c3.34,0.52,5.94,5.11,6.45,6.31c0.62,1.43,0.43,4.64,0.2,6.78c0.7,0.15,1.63-0.23,2.42-1.36c1.22-1.73,2.78-4.51,2.78-6.76
				s0-3.12,0.69-5.2c0.69-2.08,2.43-2.95,2.43-7.11C215.25,72.08,216.63,66.7,203.28,57.17z"/>
		</g>
	</g>
	<g>
		<g>
			<path class="st1" d="M29.02,156.87c-0.44,1.97-2.41,4.82-2.41,4.82s0.66-1.86,0.88-3.17c0.22-1.32,0.22-2.09,0.44-3.83
				c0.22-1.76,1.1-3.18,1.75-4.06c0.66-0.88,2.3-2.96,3.84-4.16c0.59-0.46,1.14-0.84,1.62-1.2c0.16,1.46,0.66,2.3,1.08,2.98
				c0.2,0.33,0.36,0.59,0.46,0.88c0.01,0.02,0.01,0.03,0.01,0.05c-0.33,0.26-0.42,0.62-1.09,1.22c-1.09,0.99-1.75,2.96-3.18,4.93
				c-1.43,1.97-1.64,5.26-1.64,5.26s-0.44-3.62-0.33-4.49c0.11-0.87-0.22-1.64,0.44-2.74c0.5-0.83,0.75-1.85,0.79-2.49
				c-0.28,0.32-0.53,0.58-0.68,0.73C30.34,152.26,29.46,154.89,29.02,156.87z"/>
		</g>
		<g>
			<path class="st1" d="M61.24,148.65c0.2-1.99,3.65-2.26,6.34-2.05l1.11-1.35c0,0,1.76,0.91,3.4,2.08
				c1.63,0.39,3.16,0.95,4.16,1.76c1.75,1.42,2.96,2.41,3.73,4.82c0.76,2.42,0.76,3.51,1.42,5.15c0.66,1.64,1.32,2.85,1.32,2.85
				s-1.98-0.99-2.42-2.74c-0.43-1.75-1.42-4.6-3.07-6.14c-0.42-0.39-0.81-0.73-1.21-1.04c0.24,0.65,0.43,1.52,0.66,3.01
				c0.55,3.62,1.1,6.35,1.54,6.57c0,0-1.31-0.98-1.97-3.5s-0.99-4.38-2.3-5.48c-0.81-0.67-2.11-1.59-3.28-2.2
				c-1.55-0.15-3.02-0.32-4.17,0.01C64.96,150.84,61.02,150.84,61.24,148.65z"/>
			<path class="st1" d="M54.01,148.75c-0.55-0.43-0.22-2.08,1.2-1.97c1.43,0.11,3.18,0.76,3.29,2.41c0.11,1.64-0.66,3.07-1.31,4.16
				c-0.66,1.1-1.1,1.32,0.11,2.85s1.64,2.41,3.07,4.28c1.42,1.86,3.07,4.49,3.07,4.49s-4.17-2.3-6.03-4.49
				c-1.86-2.19-3.18-4.49-3.73-5.15c-0.55-0.65-0.11-1.86,0.11-3.84C54.01,149.53,54.55,149.2,54.01,148.75z"/>
			<path class="st1" d="M42.72,153.36c0.33-0.77,1.75-3.06,3.18-3.29c1.42-0.22,2.52-0.22,2.85-1.32c0.33-1.09-0.55-2.08,0.88-2.3
				c1.42-0.22,2.52,1.09,2.52,1.09c0.44,1.86,0.44,4.72-1.21,5.48c-1.64,0.77-3.07,0.22-4.05,0.44c-0.99,0.22-1.53,0.76-1.64,2.19
				c-0.11,1.43-0.22,2.42,0,4.6c0.22,2.19,0.33,4.93,0.33,4.93s-0.22-1.42-1.21-3.18c-0.99-1.75-1.31-2.63-1.53-3.83
				C42.61,156.98,42.39,154.13,42.72,153.36z"/>
		</g>
		<g>
			<path class="st1" d="M43.82,132.21c8.44-6.03,18.74-4.49,22.57-2.85c3.83,1.65,4.27,2.3,8.77,5.37
				c4.49,3.07,3.07,8.44,0.55,11.28c0,0-0.59,0.3-1.5,0.71c-0.5-0.17-1.02-0.34-1.61-0.48c-1.63-1.14-3.29-2-3.36-2.04l-0.84-0.43
				l-0.6,0.73l-0.73,0.88c-0.33-0.01-0.66-0.02-0.97-0.02c-4.96,0-5.89,1.99-6.01,3.17c-0.08,0.76,0.14,1.45,0.64,2
				c0.05,0.06,0.12,0.11,0.18,0.17c-0.49,0.22-1,0.46-1.51,0.71c0.21-0.7,0.34-1.47,0.29-2.29c-0.13-1.93-1.84-3.31-4.37-3.5
				c-0.08-0.01-0.15-0.01-0.22-0.01c-0.89,0-1.63,0.43-2.08,1.14c-0.24-0.27-1.39-1.49-3.05-1.49c-0.16,0-0.33,0.01-0.5,0.04
				c-2.01,0.31-1.87,1.94-1.82,2.48c0.02,0.26,0.05,0.48,0,0.65c-0.06,0.18-0.24,0.26-1.36,0.41c-0.17,0.03-0.36,0.05-0.54,0.08
				c-2.11,0.33-3.75,3.23-4.08,3.99c-0.39,0.91-0.27,2.93-0.13,4.28c-0.45,0.09-1.04-0.15-1.53-0.86c-0.77-1.09-1.75-2.85-1.75-4.28
				s0-1.98-0.44-3.29s-1.53-1.86-1.53-4.49C36.26,141.64,35.38,138.24,43.82,132.21z"/>
		</g>
	</g>
	<g>
		<g>
			<path class="st1" d="M138.9,204.4c0.08-1.96,0.31-3.87,0.73-5.66l0.36-1.55c0.98-4.2,1.81-7.72,2.78-10.63
				c-0.65-0.57-1.46-1.11-2.34-1.7c-1.06-0.71-1.94-1.15-2.68-1.15c-1.2,0-2.02,1.21-2.58,4.35l0.19,1.85
				c0.84,8.07,1.22,11.7,0.17,17.38c0.75-0.23,1.59-0.51,2.46-0.82v-0.01C138.21,206.02,138.52,205.31,138.9,204.4z"/>
			<path class="st1" d="M119.6,199.46c-0.11-0.29-0.22-0.59-0.33-0.86c-1.58-4.05-3.19-8.19-1.91-11.66
				c-0.93-2.4-2.09-3.49-3.56-3.49c-1.17,0-2.55,0.69-4.15,1.94c-0.25,0.19-0.46,0.38-0.66,0.57c-0.21,0.71-0.44,1.39-0.66,2.05
				c-0.27,0.82-0.57,1.57-0.87,2.28c0.46,1.96,2.1,3.83,2.99,5.62c0.65,1.3,0.95,2.83,1.08,4.77c2.64,1.73,5.37,3.13,7.9,4.24
				C119.63,203.2,119.71,201.53,119.6,199.46z"/>
			<path class="st1" d="M164.46,169.83c-0.98,0.59-1.86,1.73-2.53,3.41c-0.66,1.64-0.51,2.85,0.04,3.91
				c0.73,0.4,1.41,0.87,1.96,1.45c0.66,0.7,1.14,1.51,1.46,2.38c0.07,0.07,0.14,0.16,0.21,0.23c0.88-2.12,1.67-4.32,2.36-6.61
				C166.54,173.22,165.26,171.62,164.46,169.83z"/>
			<path class="st1" d="M131.73,190.76c0.08-0.83,0.19-1.85,0.36-2.89c-0.01-0.11-0.02-0.2-0.03-0.31
				c-0.48-4.68-1.44-6.21-2.78-6.21c-1.68,0-3.96,2.4-6.66,4.05c-0.88,0.53-1.5,1.13-1.93,1.77c0.6,1.93,0.92,3.89,1.15,5.29
				c0.41,2.52,0.65,4.56,0.77,6.32c0.18,0.48,0.37,0.96,0.55,1.46c0.81,2.2,1.82,4.71,2.83,7.15c2.44,0.77,4.01,1.11,4.01,1.11
				s0.48-0.05,1.31-0.19C131.23,203.12,131.24,195.74,131.73,190.76z"/>
			<path class="st1" d="M162.83,184.05c0.04-0.54-0.03-1.02-0.14-1.49c-0.18-0.17-0.35-0.35-0.54-0.52
				c-0.73-0.71-1.6-1.55-2.31-2.57c-0.93-0.38-2.03-0.59-3.28-0.59c-1.22,0-2.57,0.19-3.99,0.57c-3.14,0.86-4.91,2.86-6.33,6.41
				c1.4,1.98,1.91,4.75-0.07,9.14c-1.31,2.92-2.55,5.91-3.54,8.32c-0.22,0.54-0.42,1.02-0.61,1.48c2.3-1.05,4.82-2.4,7.48-4.12
				c0.29-0.91,0.6-1.8,0.91-2.61c1.89-4.85,4.05-6.21,6.75-6.21C159.86,191.87,162.56,188.36,162.83,184.05z"/>
			<path class="st1" d="M168.06,170.06c0.26,0.38,0.55,0.74,0.85,1.11c0.02-0.1,0.04-0.19,0.06-0.28
				C168.67,170.56,168.37,170.28,168.06,170.06z"/>
			<path class="st1" d="M107.74,197.28c-0.25-0.5-0.62-1.08-1.01-1.69c-0.31-0.48-0.68-1.07-1.04-1.73
				c-0.26,0.46-0.52,0.91-0.79,1.37c1,1.05,2.06,2.03,3.18,2.93C107.98,197.85,107.88,197.54,107.74,197.28z"/>
			<path class="st1" d="M154.02,197.46c0.98-0.79,1.92-1.64,2.8-2.54C156.1,194.97,155.14,195.29,154.02,197.46z"/>
			<path class="st1" d="M94.53,172.55c-0.12,0-0.25,0.04-0.38,0.06c0.46,1.73,0.97,3.43,1.54,5.1c0.17-0.61,0.28-1.11,0.33-1.39
				c0.12-0.71,0.29-1.31,0.49-1.84C96.09,173.42,95.58,172.55,94.53,172.55z"/>
			<path class="st1" d="M94.53,169.51c1.99,0,3.19,1.07,3.98,2.26c1.08-0.75,2.2-0.86,2.71-0.86l0,0c1.55,0,3.12,0.72,4.81,2.19
				c3.15,2.76,3.96,5.7,3.81,8.54c1.41-0.8,2.71-1.21,3.97-1.22l0,0c2.65,0,4.4,1.56,5.57,3.63c0.47-0.43,1-0.85,1.65-1.24
				c0.83-0.5,1.66-1.12,2.46-1.72c1.9-1.43,3.69-2.77,5.79-2.77c2.7,0,4.1,1.92,4.87,4.08c0.84-1.04,2-1.72,3.61-1.72
				c1.65,0,3.14,0.84,4.37,1.66l0.13,0.09c0.55,0.37,1.13,0.76,1.69,1.18c1.69-3.68,3.96-6.01,7.85-7.06
				c1.66-0.45,3.27-0.68,4.79-0.68c0.67,0,1.3,0.07,1.92,0.15c-0.12-1.14,0.03-2.42,0.61-3.89c1.05-2.62,2.64-4.43,4.53-5.26
				c-0.21-1.69-0.74-7.47,1.61-10.2c0.81-0.94,1.91-1.46,3.08-1.46l0,0c0.74,0,1.87,0.22,3.03,1.26c0.06,0.05,0.11,0.11,0.17,0.17
				c0.27-2.3,0.49-4.63,0.66-6.97c1.43-19.78-12.63-38.12-30.02-41.22c-17.4-3.09-35.03,7.39-44.8,26.93
				c-5.92,11.84-6.22,23.58-3.92,34.29C93.81,169.56,94.17,169.51,94.53,169.51z"/>
			<path class="st1" d="M104.02,175.38c-1.19-1.05-2.11-1.43-2.81-1.43c-0.61,0-1.05,0.3-1.38,0.72c0.08,0.21,0.16,0.4,0.23,0.54
				c1.33,2.67,0.11,5.25-2.31,7.93c0.85,2,1.75,3.95,2.69,5.82c0.67,1.35,1.47,2.61,2.36,3.79c0.54-0.95,1.06-1.9,1.54-2.94
				c-0.16-1.71,0.29-3.56,1.91-5.38C107.23,180.81,107.12,178.1,104.02,175.38z"/>
			<path class="st1" d="M168.32,158.23c-1.58,0-2.18,4.2-1.69,8.11c0.84,0.09,1.95,0.4,3.12,1.21c0.4-1.9,0.75-3.85,1.06-5.82
				c-0.28-1.17-0.64-2.24-1.5-3.02C168.95,158.37,168.61,158.23,168.32,158.23z"/>
		</g>
		<g>
			<path class="st1" d="M89.49,186.58c4.53-3.81,9.05-7.63,7.86-10.01c-1.19-2.38-1.19-6.43-6.43-2.14s-12.63,9.05-12.63,18.82
				c0,9.77,1.91,12.87,5.48,16.2c3.57,3.34,6.91,4.53,6.91,4.53s-6.91-7.86-6.91-15.01C83.77,191.82,84.96,190.39,89.49,186.58z"/>
			<path class="st1" d="M104.02,175.38c-3.81-3.34-4.77,0-5,1.43c-0.24,1.43-1.67,6.43-3.33,9.29c-1.67,2.86-1.91,5.96-2.39,11.91
				c-0.48,5.96,1.67,20.02,1.91,20.73c0,0,0.24-3.1,0.72-6.67c0.48-3.58,0.71-6.68,3.1-12.15c2.38-5.48,4.76-7.86,6.43-12.87
				C107.12,182.06,107.83,178.72,104.02,175.38z"/>
			<path class="st1" d="M184.08,172.05c-3.81-3.57-6.67-1.91-10.25-4.29c-3.57-2.38-2.15-6.91-4.53-9.06
				c-2.38-2.14-3.34,3.34-2.62,8.1c0.17,1.13,0.68,2.23,1.38,3.27c-2.24-1.6-4.68-0.48-6.15,3.17c-1.91,4.77,2.86,5.96,5.24,10.01
				c2.38,4.05,1.67,6.91,2.86,11.2s8.34,22.64,8.34,22.64s-0.24-8.81-0.71-15.25c-0.48-6.44-1.19-10.01-1.91-14.54
				c-0.7-4.45-3.02-10.51-5.59-14.79c2.24,2.16,4.96,3.77,6.31,4.31c2.38,0.95,3.1,5,4.53,11.91s-0.24,19.06-0.24,19.06
				s5.24-11.44,7.38-18.82C190.28,181.58,187.9,175.62,184.08,172.05z"/>
			<path class="st1" d="M109.65,185.4c-4.86,3.78-0.81,7.29,0.81,10.53c1.62,3.24,1.08,7.83,1.08,17.01
				c0,9.18-0.54,22.68-0.54,22.68s1.62-1.89,3.24-6.21c1.62-4.32,2.97-7.02,4.05-15.93s2.16-10.53,0.54-20.52
				C117.21,182.96,114.51,181.62,109.65,185.4z"/>
			<path class="st1" d="M152.57,179.45c-5.94,1.62-7.02,7.29-9.99,19.98s4.59,32.39,4.59,32.39s-1.35-11.07-0.81-16.47
				c0.54-5.4,2.16-12.42,4.05-17.28c1.89-4.85,4.05-6.21,6.75-6.21s5.4-3.51,5.67-7.82C163.1,179.73,158.51,177.84,152.57,179.45z"
				/>
			<path class="st1" d="M122.61,185.4c-4.86,2.97-2.16,7.56,0.54,14.85c2.7,7.29,7.56,18.09,7.56,18.09s0.27-4.05,1.62-10.53
				c1.35-6.48,0.81-9.72-0.27-20.25S127.47,182.42,122.61,185.4z"/>
			<path class="st1" d="M140.43,184.85c-3.24-2.16-4.86-1.88-5.67,6.21c-0.81,8.1-0.27,23.22-0.27,23.22s2.69-6.21,3.51-7.83
				c0.81-1.62,2.97-7.29,5.4-12.69C145.83,188.36,143.66,187.01,140.43,184.85z"/>
		</g>
	</g>
	<g>
		<g>
			<path class="st1" d="M132.75,53.31c-0.02-0.58-0.09-1.14-0.21-1.67l-0.11-0.46c-0.29-1.23-0.53-2.27-0.82-3.13
				c0.19-0.17,0.43-0.33,0.69-0.5c0.31-0.21,0.57-0.34,0.79-0.34c0.36,0,0.59,0.36,0.76,1.29l-0.06,0.54
				c-0.25,2.38-0.36,3.45-0.05,5.12c-0.22-0.07-0.47-0.15-0.73-0.24l0,0C132.95,53.79,132.86,53.58,132.75,53.31z"/>
			<path class="st1" d="M138.44,51.85c0.03-0.08,0.06-0.17,0.1-0.25c0.46-1.2,0.94-2.42,0.56-3.44c0.27-0.71,0.61-1.03,1.05-1.03
				c0.35,0,0.75,0.2,1.23,0.57c0.07,0.06,0.14,0.11,0.2,0.17c0.06,0.2,0.13,0.41,0.19,0.6c0.08,0.24,0.17,0.46,0.26,0.67
				c-0.14,0.58-0.62,1.13-0.88,1.66c-0.19,0.38-0.28,0.83-0.32,1.41c-0.78,0.51-1.59,0.92-2.33,1.25
				C138.43,52.95,138.41,52.46,138.44,51.85z"/>
			<path class="st1" d="M125.21,43.11c0.29,0.17,0.55,0.51,0.75,1.01c0.19,0.48,0.15,0.84-0.01,1.15c-0.21,0.12-0.41,0.25-0.58,0.42
				c-0.19,0.21-0.33,0.45-0.43,0.7c-0.02,0.02-0.04,0.05-0.06,0.07c-0.26-0.62-0.49-1.28-0.7-1.95
				C124.59,44.11,124.97,43.64,125.21,43.11z"/>
			<path class="st1" d="M134.86,49.29c-0.02-0.25-0.06-0.55-0.11-0.85c0-0.03,0.01-0.06,0.01-0.09c0.14-1.38,0.42-1.83,0.82-1.83
				c0.5,0,1.17,0.71,1.97,1.2c0.26,0.16,0.44,0.33,0.57,0.52c-0.18,0.57-0.27,1.15-0.34,1.56c-0.12,0.74-0.19,1.35-0.23,1.86
				c-0.05,0.14-0.11,0.28-0.16,0.43c-0.24,0.65-0.54,1.39-0.83,2.11c-0.72,0.23-1.18,0.33-1.18,0.33s-0.14-0.01-0.38-0.06
				C135.01,52.93,135.01,50.75,134.86,49.29z"/>
			<path class="st1" d="M125.69,47.3c-0.01-0.16,0.01-0.3,0.04-0.44c0.05-0.05,0.1-0.1,0.16-0.15c0.22-0.21,0.47-0.46,0.68-0.76
				c0.28-0.11,0.6-0.17,0.97-0.17c0.36,0,0.76,0.05,1.17,0.17c0.93,0.25,1.45,0.85,1.87,1.89c-0.41,0.58-0.56,1.4,0.02,2.7
				c0.39,0.86,0.75,1.75,1.04,2.46c0.06,0.16,0.12,0.3,0.18,0.44c-0.67-0.31-1.42-0.71-2.2-1.21c-0.09-0.27-0.18-0.54-0.27-0.77
				c-0.56-1.43-1.19-1.83-1.99-1.83C126.56,49.61,125.77,48.58,125.69,47.3z"/>
			<path class="st1" d="M124.15,43.18c-0.08,0.11-0.16,0.22-0.25,0.33c-0.01-0.03-0.01-0.06-0.02-0.08
				C123.96,43.33,124.06,43.24,124.15,43.18z"/>
			<path class="st1" d="M141.94,51.21c0.08-0.15,0.18-0.32,0.3-0.5c0.09-0.14,0.2-0.32,0.31-0.51c0.08,0.14,0.15,0.27,0.23,0.4
				c-0.29,0.31-0.61,0.6-0.94,0.87C141.87,51.37,141.9,51.29,141.94,51.21z"/>
			<path class="st1" d="M128.29,51.26c-0.29-0.23-0.57-0.48-0.83-0.75C127.67,50.52,127.96,50.62,128.29,51.26z"/>
			<path class="st1" d="M145.84,43.91c0.03,0,0.08,0.01,0.11,0.02c-0.14,0.51-0.29,1.01-0.46,1.5c-0.05-0.18-0.08-0.33-0.1-0.41
				c-0.04-0.21-0.09-0.39-0.15-0.54C145.38,44.17,145.52,43.91,145.84,43.91z"/>
			<path class="st1" d="M145.84,43.01c-0.59,0-0.94,0.32-1.17,0.67c-0.32-0.22-0.65-0.25-0.8-0.25l0,0c-0.46,0-0.92,0.21-1.42,0.64
				c-0.93,0.81-1.17,1.68-1.12,2.52c-0.42-0.23-0.8-0.36-1.17-0.36l0,0c-0.78,0-1.29,0.46-1.64,1.07c-0.14-0.13-0.3-0.25-0.48-0.37
				c-0.25-0.15-0.49-0.33-0.73-0.51c-0.56-0.42-1.09-0.82-1.71-0.82c-0.8,0-1.21,0.56-1.43,1.21c-0.25-0.31-0.59-0.51-1.06-0.51
				c-0.49,0-0.92,0.25-1.29,0.49l-0.04,0.02c-0.16,0.11-0.33,0.22-0.5,0.35c-0.5-1.08-1.17-1.77-2.31-2.08
				c-0.49-0.13-0.96-0.2-1.41-0.2c-0.2,0-0.39,0.02-0.57,0.05c0.04-0.34-0.01-0.71-0.18-1.15c-0.31-0.77-0.78-1.31-1.33-1.55
				c0.06-0.5,0.22-2.21-0.47-3.01c-0.24-0.28-0.56-0.43-0.91-0.43l0,0c-0.22,0-0.55,0.06-0.89,0.37c-0.02,0.02-0.03,0.04-0.05,0.05
				c-0.08-0.68-0.15-1.37-0.19-2.06c-0.42-5.84,3.72-11.25,8.85-12.16c5.13-0.92,10.33,2.18,13.22,7.94
				c1.75,3.49,1.83,6.96,1.15,10.12C146.05,43.03,145.94,43.01,145.84,43.01z"/>
			<path class="st1" d="M143.04,44.75c0.35-0.31,0.62-0.42,0.83-0.42c0.18,0,0.31,0.09,0.41,0.21c-0.02,0.06-0.05,0.12-0.07,0.16
				c-0.39,0.79-0.03,1.55,0.68,2.34c-0.25,0.59-0.51,1.17-0.79,1.72c-0.2,0.4-0.43,0.77-0.7,1.12c-0.16-0.28-0.31-0.56-0.45-0.87
				c0.05-0.5-0.08-1.05-0.56-1.59C142.09,46.35,142.12,45.55,143.04,44.75z"/>
			<path class="st1" d="M124.07,39.69c0.47,0,0.64,1.24,0.5,2.39c-0.25,0.02-0.58,0.12-0.92,0.36c-0.12-0.56-0.22-1.14-0.31-1.72
				c0.08-0.34,0.19-0.66,0.44-0.89C123.89,39.73,123.98,39.69,124.07,39.69z"/>
		</g>
		<g>
			<path class="st1" d="M147.33,48.05c-1.34-1.12-2.67-2.25-2.32-2.95c0.35-0.7,0.35-1.9,1.9-0.63c1.55,1.27,3.72,2.67,3.72,5.56
				c0,2.88-0.56,3.8-1.62,4.78s-2.04,1.33-2.04,1.33s2.04-2.32,2.04-4.43S148.66,49.18,147.33,48.05z"/>
			<path class="st1" d="M143.04,44.75c1.13-0.98,1.41,0,1.48,0.42c0.07,0.42,0.49,1.9,0.98,2.74c0.49,0.84,0.56,1.76,0.7,3.51
				c0.14,1.76-0.49,5.9-0.56,6.12c0,0-0.07-0.91-0.21-1.97s-0.21-1.97-0.91-3.59c-0.71-1.61-1.41-2.32-1.9-3.79
				C142.12,46.71,141.91,45.73,143.04,44.75z"/>
			<path class="st1" d="M119.42,43.77c1.13-1.05,1.97-0.56,3.02-1.27c1.05-0.7,0.63-2.04,1.33-2.67c0.7-0.63,0.98,0.99,0.77,2.39
				c-0.05,0.33-0.2,0.66-0.41,0.96c0.66-0.47,1.38-0.14,1.81,0.94c0.56,1.4-0.84,1.76-1.55,2.95c-0.7,1.2-0.49,2.04-0.84,3.31
				c-0.35,1.26-2.46,6.68-2.46,6.68s0.07-2.6,0.21-4.5s0.35-2.95,0.56-4.28c0.21-1.32,0.89-3.1,1.65-4.37
				c-0.66,0.64-1.46,1.11-1.86,1.27c-0.7,0.28-0.92,1.48-1.33,3.52c-0.42,2.04,0.07,5.62,0.07,5.62s-1.55-3.37-2.18-5.55
				C117.59,46.58,118.29,44.82,119.42,43.77z"/>
			<path class="st1" d="M141.38,47.7c1.43,1.12,0.24,2.15-0.24,3.11c-0.48,0.95-0.32,2.31-0.32,5.02s0.16,6.69,0.16,6.69
				s-0.48-0.56-0.96-1.83c-0.48-1.28-0.88-2.07-1.19-4.7c-0.32-2.63-0.64-3.11-0.16-6.05C139.15,46.98,139.94,46.59,141.38,47.7z"/>
			<path class="st1" d="M128.71,45.95c1.75,0.48,2.07,2.15,2.95,5.89c0.88,3.74-1.35,9.56-1.35,9.56s0.4-3.26,0.24-4.86
				c-0.16-1.59-0.64-3.67-1.19-5.1c-0.56-1.43-1.19-1.83-1.99-1.83c-0.8,0-1.59-1.03-1.67-2.31
				C125.61,46.03,126.96,45.47,128.71,45.95z"/>
			<path class="st1" d="M137.55,47.7c1.43,0.88,0.64,2.23-0.16,4.38c-0.79,2.15-2.23,5.34-2.23,5.34s-0.08-1.19-0.48-3.11
				c-0.4-1.91-0.24-2.86,0.08-5.97C135.08,45.23,136.12,46.83,137.55,47.7z"/>
			<path class="st1" d="M132.3,47.54c0.96-0.64,1.43-0.56,1.67,1.83c0.24,2.39,0.08,6.85,0.08,6.85s-0.8-1.83-1.04-2.31
				c-0.24-0.48-0.87-2.15-1.59-3.74C130.7,48.58,131.34,48.18,132.3,47.54z"/>
		</g>
	</g>
	<g>
		<g>
			<path class="st1" d="M60.38,106.37l-1.25,0.33l-0.77-1.76c-0.55-1.26-2.23-4.92-3.36-6.6c-0.16-0.24-0.34-0.5-0.54-0.77
				c-1.61-2.28-4.31-6.1-2.87-11.67c0.69-2.68,1.06-4.88,1.36-6.65c0.2-1.16,0.39-2.18,0.62-3.14c-0.09,0.13-0.18,0.26-0.27,0.38
				c-0.67,0.78-1.25,1.4-1.61,1.68c-1.48,1.18-3.55,1.18-6.65,3.7c-3.1,2.51-2.96,7.1-2.22,11.09c0.74,3.99,2.07,9.32,3.85,12.42
				l1.18,2.21l2.37,10.06c0,0,0.3-4.59,0-5.92c-0.3-1.33-1.04-6.21-1.48-8.28c-0.38-1.78-0.75-4.22-0.1-7.21
				c0.7,0.71,1.53,1.36,2.32,2.04c2.07,1.77,6.95,7.69,8.43,8.72c1.48,1.04,1.33,5.77,1.33,5.77l-0.15,2.22c0,0,1.04-6.06,0-8.28
				C60.51,106.6,60.44,106.48,60.38,106.37z"/>
		</g>
		<g>
			<path class="st1" d="M105.36,75.07c-0.19-0.07-0.38-0.11-0.55-0.11c-1.97,0-2.84,4.34-2.7,7.05c0.15,2.96,2.66,3.4,3.84,5.18
				c0.63,0.94,0.71,2.54,0.74,4.15c1.92-1.1,3.52-2.27,4.72-3.24c-0.32-1.89-0.58-3.59-0.58-5.64
				C110.83,79.8,107.72,75.96,105.36,75.07z"/>
			<path class="st1" d="M101.5,87.12c-0.36,2.15-1.11,4.6-1.99,7.19c1.77-0.45,3.44-1.08,4.97-1.81c0-0.19-0.02-0.37-0.02-0.57
				c-0.02-1.12-0.05-2.99-0.38-3.49c-0.22-0.33-0.63-0.66-1.11-1.03c-0.41-0.32-0.9-0.71-1.36-1.2
				C101.59,86.49,101.56,86.77,101.5,87.12z"/>
			<path class="st1" d="M72.68,89.71c-0.93,0.88-1.7,2.6-2.26,4.7c1.02-1.44,1.99-2.8,3.16-4.11c2.12-2.37,3.64,0.01,11.55,2.67
				c1.44-2.56,3.05-6.33,3.82-8.44c0.25-0.67,0.35-1.25,0.36-1.74c-1.09-2.23-1.62-4.97-1.71-6.56c-0.03-0.42-0.05-0.89-0.05-1.39
				c-1.03-1.56-3.07-2.42-5.13-2.42c-0.96,0-1.92,0.19-2.79,0.57c-2.96,1.33-3.7,6.8-3.55,8.87c0.15,2.07,1.63,2.96,1.33,4.29
				C77.12,87.49,75.19,87.34,72.68,89.71z"/>
			<path class="st1" d="M105.65,50.97c-9.42-8.19-18.93-6.8-27.8-5.18c-8.87,1.63-18.19,12.87-19.96,15.23
				c-1.77,2.37-0.89,3.55-0.29,6.65c0.59,3.1-0.89,5.62-1.63,7.98c-0.74,2.37-0.89,5.62-2.22,10.79c-1.33,5.18,1.63,8.43,3.11,10.65
				s3.55,6.95,3.55,6.95s2.81-0.74,5.91-4.29c0.38-0.44,0.74-0.87,1.08-1.29c0.49-4.25,1.7-8.47,3.74-10.39
				c1.46-1.37,2.78-2.05,3.66-2.5c0.07-0.03,0.13-0.07,0.2-0.11c-0.02-0.05-0.05-0.1-0.07-0.14c-0.39-0.72-0.98-1.8-1.08-3.31
				c-0.13-1.82,0.31-9.02,4.86-11.07c1.12-0.5,2.4-0.77,3.71-0.77c2.14,0,4.08,0.67,5.53,1.82c0.21-0.62,0.52-1.21,1-1.72
				c0.6-0.63,1.69-1.38,3.51-1.38c0.4,0,0.83,0.03,1.27,0.11c4.14,0.66,5.26,3.13,5.93,4.61c0.12,0.26,0.23,0.51,0.36,0.74
				c0.14,0.22,0.29,0.44,0.43,0.65c0.15,0.22,0.31,0.46,0.47,0.72c0.3-0.67,0.67-1.29,1.13-1.78c0.97-1.02,2.02-1.23,2.74-1.23
				c0.45,0,0.9,0.08,1.34,0.25c3.12,1.17,6.92,5.78,6.92,9.49c0,1.4,0.14,2.62,0.34,3.92c0.23-0.22,0.38-0.37,0.38-0.37
				S130.64,72.71,105.65,50.97z"/>
			<path class="st1" d="M93.38,71.22c-0.34-0.05-0.64-0.08-0.92-0.08c-2.08,0-2.6,1.43-2.67,3.17c0.06,0.11,0.13,0.22,0.18,0.33
				c0.93,2.2,0.98,4.13,0.88,5.3c0.34,0.59,0.6,1.35,0.67,2.26c0.46,0.84,0.98,1.5,1.56,1.74c1.77,0.74,0.59,2.22,0.15,4.88
				c-0.33,1.95-1.21,3.36-2.19,5.78c2.03,0.39,4.03,0.45,5.93,0.2c1.03-2.95,1.93-5.74,2.32-8.05c0.59-3.55-0.45-2.81,0.29-5.77
				s-0.59-3.99-1.48-5.47C97.22,74.03,97.08,71.82,93.38,71.22z"/>
			<path class="st1" d="M88.84,94.09c0.37-0.95,0.73-1.75,1.04-2.45c0.56-1.24,0.96-2.14,1.14-3.19c0.15-0.87,0.35-1.61,0.52-2.2
				c0.04-0.16,0.1-0.35,0.14-0.52c-0.22-0.14-0.42-0.33-0.62-0.51c-0.01,0.03-0.01,0.06-0.02,0.09c-0.7,1.89-2.23,5.55-3.76,8.35
				C87.78,93.8,88.3,93.95,88.84,94.09z"/>
		</g>
		<g>
			<path class="st1" d="M88.5,80.54c0,0,0.59-2.22-0.59-5.03c-1.18-2.8-5.32-3.84-8.28-2.51c-2.96,1.33-3.7,6.8-3.55,8.87
				c0.15,2.07,1.63,2.96,1.33,4.29c-0.3,1.33-2.22,1.18-4.73,3.55s-3.84,10.79-3.1,16.41s0.15,7.69,0.15,7.69s6.95-6.8,9.61-10.94
				s2.81-5.91,4.44-7.84c1.63-1.92,4.14-7.69,5.17-10.5C89.98,81.72,88.5,80.54,88.5,80.54z"/>
			<path class="st1" d="M93.38,71.22c-3.7-0.59-3.7,2.22-3.55,4.88c0.15,2.66,1.48,7.1,3.25,7.84c1.77,0.74,0.59,2.22,0.15,4.88
				c-0.44,2.66-1.92,4.29-3.25,8.87s-1.92,10.06-1.92,10.06s-0.35,3.39-0.51,4.48c0.7-1.56,6.24-8.19,7.76-12.62
				c1.63-4.73,3.4-9.32,3.99-12.86c0.59-3.55-0.45-2.81,0.29-5.77s-0.59-3.99-1.48-5.47C97.22,74.03,97.08,71.82,93.38,71.22z"/>
			<path class="st1" d="M111.71,89.85c-0.45-2.66-0.89-4.73-0.89-7.39c0-2.66-3.11-6.5-5.47-7.39s-3.4,3.99-3.25,6.95
				s2.66,3.4,3.84,5.18c1.18,1.77,0.44,5.92,1.04,7.98c0.59,2.07-0.74,3.25-0.89,6.95s-2.37,9.02-2.37,9.02l-1.33,5.77
				c0,0,3.4-4.73,5.77-7.1c2.37-2.36,3.25-6.8,3.55-9.61C112.01,97.39,112.16,92.51,111.71,89.85z"/>
		</g>
	</g>
	<g>
		<g>
			<path class="st1" d="M215.17,155.75l0.64,0.16l0.38-0.9c0.27-0.65,1.09-2.53,1.64-3.39c0.08-0.13,0.17-0.26,0.27-0.4
				c0.8-1.17,2.13-3.14,1.35-5.96c-0.37-1.36-0.58-2.47-0.75-3.36c-0.11-0.59-0.22-1.1-0.34-1.59c0.05,0.06,0.09,0.13,0.14,0.2
				c0.34,0.38,0.64,0.69,0.83,0.84c0.76,0.59,1.81,0.56,3.41,1.81s1.57,3.58,1.23,5.62c-0.34,2.03-0.97,4.75-1.84,6.34l-0.58,1.14
				l-1.11,5.13c0,0-0.19-2.33-0.06-3.01c0.14-0.68,0.47-3.16,0.68-4.22c0.18-0.91,0.34-2.15-0.01-3.67
				c-0.35,0.36-0.77,0.71-1.16,1.06c-1.04,0.92-3.46,3.97-4.21,4.51c-0.74,0.54-0.62,2.94-0.62,2.94l0.1,1.12
				c0,0-0.58-3.06-0.08-4.2C215.11,155.88,215.15,155.81,215.17,155.75z"/>
		</g>
		<g>
			<path class="st1" d="M192.03,140.26c0.1-0.04,0.19-0.06,0.28-0.06c1-0.02,1.48,2.18,1.44,3.56c-0.05,1.5-1.32,1.75-1.91,2.67
				c-0.31,0.49-0.34,1.3-0.34,2.11c-0.99-0.54-1.81-1.12-2.43-1.6c0.15-0.96,0.26-1.83,0.25-2.87
				C189.29,142.72,190.83,140.74,192.03,140.26z"/>
			<path class="st1" d="M194.1,146.35c0.2,1.09,0.6,2.33,1.08,3.64c-0.9-0.21-1.76-0.52-2.54-0.88c0-0.09,0-0.18,0-0.28
				c0-0.57,0-1.52,0.16-1.78c0.11-0.17,0.31-0.34,0.56-0.54c0.2-0.17,0.45-0.37,0.68-0.63C194.05,146.03,194.06,146.18,194.1,146.35
				z"/>
			<path class="st1" d="M208.77,147.4c0.48,0.44,0.89,1.3,1.2,2.36c-0.53-0.72-1.04-1.41-1.64-2.06c-1.1-1.19-1.85,0.04-5.84,1.47
				c-0.76-1.29-1.61-3.19-2.02-4.26c-0.13-0.34-0.18-0.63-0.2-0.88c0.54-1.14,0.78-2.55,0.81-3.35c0.01-0.21,0.02-0.45,0.01-0.71
				c0.51-0.8,1.54-1.26,2.58-1.28c0.49-0.01,0.98,0.08,1.42,0.26c1.52,0.65,1.94,3.42,1.88,4.48c-0.05,1.05-0.8,1.52-0.63,2.19
				C206.49,146.31,207.47,146.22,208.77,147.4z"/>
			<path class="st1" d="M191.66,128.02c4.71-4.25,9.55-3.63,14.08-2.89c4.52,0.74,9.36,6.37,10.29,7.55
				c0.92,1.19,0.48,1.79,0.21,3.38c-0.27,1.59,0.5,2.85,0.9,4.05c0.4,1.19,0.5,2.84,1.23,5.46c0.72,2.62-0.75,4.3-1.48,5.44
				s-1.74,3.56-1.74,3.56s-1.43-0.35-3.05-2.13c-0.2-0.21-0.38-0.43-0.56-0.64c-0.29-2.16-0.94-4.29-2-5.25
				c-0.75-0.69-1.43-1.02-1.88-1.24c-0.03-0.01-0.07-0.03-0.1-0.05c0.01-0.03,0.03-0.05,0.04-0.07c0.19-0.37,0.48-0.93,0.52-1.69
				c0.05-0.93-0.25-4.58-2.57-5.58c-0.57-0.25-1.23-0.37-1.89-0.36c-1.09,0.02-2.07,0.38-2.79,0.98c-0.11-0.31-0.28-0.61-0.52-0.86
				c-0.31-0.32-0.87-0.69-1.8-0.67c-0.2,0-0.42,0.03-0.65,0.07c-2.1,0.38-2.65,1.64-2.97,2.4c-0.06,0.13-0.11,0.26-0.18,0.38
				c-0.07,0.11-0.14,0.22-0.21,0.34c-0.07,0.11-0.15,0.24-0.23,0.37c-0.16-0.34-0.35-0.65-0.59-0.9c-0.5-0.51-1.04-0.61-1.4-0.61
				c-0.23,0.01-0.46,0.06-0.68,0.14c-1.57,0.63-3.46,3-3.43,4.89c0.01,0.71-0.05,1.33-0.14,2c-0.12-0.11-0.2-0.19-0.2-0.19
				S179.16,139.3,191.66,128.02z"/>
			<path class="st1" d="M198.08,138.2c0.17-0.02,0.33-0.04,0.47-0.04c1.06-0.02,1.33,0.7,1.38,1.58c-0.03,0.06-0.06,0.11-0.08,0.17
				c-0.45,1.13-0.46,2.1-0.4,2.7c-0.17,0.3-0.29,0.7-0.32,1.16c-0.22,0.43-0.49,0.77-0.78,0.9c-0.89,0.39-0.28,1.13-0.03,2.48
				c0.18,0.99,0.64,1.7,1.16,2.92c-1.03,0.22-2.04,0.26-3.01,0.16c-0.55-1.49-1.04-2.9-1.25-4.07c-0.33-1.8,0.2-1.43-0.2-2.92
				c-0.41-1.5,0.26-2.04,0.7-2.8C196.15,139.66,196.21,138.53,198.08,138.2z"/>
			<path class="st1" d="M200.6,149.78c-0.2-0.48-0.39-0.88-0.55-1.24c-0.29-0.63-0.51-1.08-0.61-1.61
				c-0.08-0.44-0.19-0.81-0.28-1.11c-0.02-0.08-0.05-0.18-0.08-0.27c0.11-0.07,0.21-0.17,0.31-0.27c0.01,0.02,0.01,0.03,0.01,0.05
				c0.37,0.95,1.18,2.8,1.98,4.21C201.13,149.62,200.87,149.7,200.6,149.78z"/>
		</g>
		<g>
			<path class="st1" d="M200.64,142.89c0,0-0.32-1.12,0.25-2.56c0.58-1.44,2.67-2,4.19-1.36c1.52,0.65,1.94,3.42,1.88,4.48
				c-0.05,1.05-0.8,1.52-0.63,2.19c0.16,0.67,1.14,0.58,2.43,1.76c1.3,1.18,2.05,5.45,1.73,8.31c-0.33,2.86,0,3.91,0,3.91
				s-3.59-3.39-4.98-5.47s-1.48-2.98-2.33-3.94c-0.84-0.96-2.17-3.87-2.73-5.29C199.9,143.5,200.64,142.89,200.64,142.89z"/>
			<path class="st1" d="M198.08,138.2c1.87-0.33,1.9,1.1,1.85,2.45c-0.05,1.35-0.68,3.62-1.58,4.01c-0.89,0.39-0.28,1.13-0.03,2.48
				c0.25,1.35,1.02,2.16,1.73,4.48c0.72,2.31,1.07,5.09,1.07,5.09s0.21,1.73,0.3,2.28c-0.37-0.79-3.25-4.11-4.06-6.34
				c-0.87-2.39-1.81-4.7-2.15-6.5c-0.33-1.8,0.2-1.43-0.2-2.92c-0.41-1.5,0.26-2.04,0.7-2.8
				C196.15,139.66,196.21,138.53,198.08,138.2z"/>
			<path class="st1" d="M188.94,147.84c0.2-1.36,0.41-2.42,0.38-3.76c-0.02-1.35,1.52-3.34,2.71-3.81s1.76,2,1.72,3.5
				c-0.05,1.5-1.32,1.75-1.91,2.67c-0.59,0.91-0.17,3.01-0.45,4.07c-0.28,1.06,0.41,1.65,0.51,3.52c0.11,1.88,1.29,4.57,1.29,4.57
				l0.73,2.91c0,0-1.77-2.38-3-3.55c-1.22-1.18-1.72-3.43-1.89-4.85C188.85,151.67,188.73,149.19,188.94,147.84z"/>
		</g>
	</g>
</g>
<g>
	<path class="st2" d="M224.37,219.23L41.24,35.02c-1.95,1.81-3.86,3.68-5.7,5.61l183.17,184.25
		C220.66,223.06,222.54,221.17,224.37,219.23z"/>
	<path class="st2" d="M35.54,219.23L218.67,35.02c1.95,1.81,3.86,3.68,5.7,5.61L41.2,224.89C39.25,223.06,37.37,221.17,35.54,219.23
		z"/>
</g>
</svg>
