<?xml version="1.0" encoding="utf-8"?>
<!-- Generator: Adobe Illustrator 23.0.1, SVG Export Plug-In . SVG Version: 6.00 Build 0)  -->
<svg version="1.1" id="Layer_10" xmlns="http://www.w3.org/2000/svg" xmlns:xlink="http://www.w3.org/1999/xlink" x="0px" y="0px"
	 viewBox="0 0 260.06 260.11" style="enable-background:new 0 0 260.06 260.11;" xml:space="preserve">
<style type="text/css">
	.st0{fill:#FFFFFF;}
	.st1{fill:#939598;}
</style>
<path class="st0" d="M260.11,130.05c0,71.83-58.23,130.05-130.05,130.05C58.23,260.11,0,201.88,0,130.05C0,58.23,58.23,0,130.06,0
	C201.88,0,260.11,58.23,260.11,130.05z"/>
<path class="st1" d="M99.62,225.98c13.39,4.24,27.41,5.62,41.2,4.13l0.7,7.75l18.47-19.04l-21.75-15.19l0.64,7.42
	c-11.17,1.2-22.63,0.13-33.47-3.3L99.62,225.98z"/>
<path class="st1" d="M176.36,219.41c12.47-6.47,23.35-15.41,32.05-26.21l5.97,4.99l-0.4-26.53l-26.13,4.64l5.7,4.79
	c-7.05,8.75-15.91,16.1-26,21.34L176.36,219.41z"/>
<path class="st1" d="M219.41,83.75C212.94,71.28,204,60.4,193.2,51.7l4.99-5.97l-26.53,0.4l4.65,26.13l4.79-5.7
	c8.75,7.05,16.1,15.9,21.34,26L219.41,83.75z"/>
<path class="st1" d="M160.49,34.13c-13.39-4.24-27.41-5.62-41.2-4.13l-0.69-7.76l-18.47,19.05l21.75,15.19l-0.64-7.42
	c11.17-1.2,22.63-0.13,33.48,3.3L160.49,34.13z"/>
<path class="st1" d="M83.75,40.7C71.28,47.17,60.4,56.12,51.7,66.92l-5.97-4.99l0.4,26.53l26.13-4.65l-5.7-4.79
	c7.05-8.75,15.91-16.1,26.01-21.34L83.75,40.7z"/>
<path class="st1" d="M40.7,176.36c6.47,12.47,15.41,23.35,26.21,32.05l-4.99,5.97l26.53-0.4l-4.64-26.13l-4.79,5.7
	c-8.75-7.05-16.1-15.91-21.34-26.01L40.7,176.36z"/>
<path class="st1" d="M105.52,106.29c-17.4,15.01-12.8,33.26-10.84,39.97c19.6-34.64,57.61-40.3,57.61-40.3s-50.04,28.43-58.82,68.18
	c-0.69,3.14,7.08,5.59,8.05,1.85c2.88-11.13,8.14-20.07,8.14-20.07c10.58,1.81,28.51,2.91,39.03-7.91
	c13.97-14.37,7.59-39.19,28.28-55.75C181.81,88.38,129.11,85.93,105.52,106.29z"/>
<g>
	<g>
		<path class="st1" d="M213.66,140.31c2.89,1.6,6.76,3.44,11.13,3.44c3.32,0,5.96-1.41,5.96-4.12c0-2.15-1.72-3.87-4.49-4.86
			l-6.15-2.21c-4.73-1.78-7.56-4.55-7.56-8.98c0-4.86,3.5-8.67,9.1-9.59v-5.04c0.61-0.18,1.91-0.25,2.52-0.25
			c0.74,0,1.91,0.06,2.58,0.25v4.92c3.81,0.37,7.07,1.48,9.59,2.64c0,1.91-0.98,3.94-2.34,5.04c-3.07-1.41-6.7-2.4-9.53-2.4
			c-3.26,0-5.41,1.48-5.41,4c0,2.03,1.54,2.95,4.24,3.87l5.96,2.21c4.61,1.66,8.12,4.92,8.12,9.78c0,5.53-4.12,9.41-10.88,9.96v4.67
			c-0.68,0.12-1.84,0.18-2.58,0.18c-0.61,0-1.91-0.06-2.52-0.18v-4.8c-4.37-0.61-8.18-2.21-10.27-3.63
			C211.2,143.5,212.37,141.17,213.66,140.31z"/>
	</g>
	<g>
		<path class="st1" d="M25.23,140.31c2.89,1.6,6.76,3.44,11.13,3.44c3.32,0,5.96-1.41,5.96-4.12c0-2.15-1.72-3.87-4.49-4.86
			l-6.15-2.21c-4.73-1.78-7.56-4.55-7.56-8.98c0-4.86,3.5-8.67,9.1-9.59v-5.04c0.61-0.18,1.91-0.25,2.52-0.25
			c0.74,0,1.91,0.06,2.58,0.25v4.92c3.81,0.37,7.07,1.48,9.59,2.64c0,1.91-0.98,3.94-2.34,5.04c-3.07-1.41-6.7-2.4-9.53-2.4
			c-3.26,0-5.41,1.48-5.41,4c0,2.03,1.54,2.95,4.24,3.87l5.96,2.21c4.61,1.66,8.12,4.92,8.12,9.78c0,5.53-4.12,9.41-10.88,9.96v4.67
			c-0.68,0.12-1.84,0.18-2.58,0.18c-0.61,0-1.91-0.06-2.52-0.18v-4.8c-4.37-0.61-8.18-2.21-10.27-3.63
			C22.77,143.5,23.94,141.17,25.23,140.31z"/>
	</g>
</g>
</svg>
