<?xml version="1.0" encoding="utf-8"?>
<!-- Generator: Adobe Illustrator 23.0.1, SVG Export Plug-In . SVG Version: 6.00 Build 0)  -->
<svg version="1.1" id="Layer_1" xmlns="http://www.w3.org/2000/svg" xmlns:xlink="http://www.w3.org/1999/xlink" x="0px" y="0px"
	 viewBox="0 0 259.91 259.92" style="enable-background:new 0 0 259.91 259.92;" xml:space="preserve">
<style type="text/css">
	.st0{fill:#FFFFFF;}
	.st1{fill:#A7A9AC;}
</style>
<g id="Layer_5">
	<ellipse class="st0" cx="129.97" cy="129.95" rx="129.96" ry="129.96"/>
</g>
<g id="Layer_10">
	<g>
		<ellipse class="st1" cx="117.69" cy="45.03" rx="19.77" ry="19.77"/>
		<path class="st1" d="M132.26,100.19l4.75,21.94c1.41-1.99,2.64-3.93,3.66-5.81c2.05-3.79,3.28-7.35,3.71-10.62l-2.91-14.95
			c1.78,2.03,3.27,4.37,4.1,7.03l0,0c0.49,1.54,0.78,3.22,0.81,5.09c0,0.12,0.01,0.24,0.01,0.36c-0.01,3.7-1.03,8.27-4.11,13.97
			c-3.07,5.69-8.21,12.44-16.2,20.19c-2.37,2.3-2.43,6.08-0.14,8.45c1.17,1.21,2.73,1.82,4.29,1.82c1.5,0,3-0.56,4.16-1.68
			c8.64-8.37,14.56-16,18.4-23.09c3.83-7.07,5.55-13.67,5.55-19.66c0-0.09-0.01-0.18-0.01-0.27c-0.03-3.13-0.52-6.07-1.36-8.75
			c-0.01-0.02-0.01-0.03-0.01-0.05c-2.75-8.58-8.74-14.23-13.76-17.78c-1.27-0.89-2.49-1.66-3.61-2.31L132.26,100.19z"/>
		<path class="st1" d="M108.19,99.52h19l7.82-27.79c-0.83-0.36-1.36-0.56-1.47-0.6l-0.25-0.09l-0.26-0.07
			c-0.27-0.05-7.44-2.01-15.34-2.04c-7.48-0.01-12.59,1.15-15.61,2.12c-0.62,0.21-1.17,0.44-1.7,0.69L108.19,99.52z"/>
		<path class="st1" d="M124.81,136.05c0.49-0.47,0.95-0.94,1.42-1.41l-12.36-18.03c-1.09,1.88-2.95,3.27-5.17,3.73l13.83,20.17
			C122.77,138.87,123.53,137.3,124.81,136.05z"/>
		<path class="st1" d="M196.09,195.45c-13.51-11.48-29.1-11.88-35.98-11.38l-7.26-10.59h4.69l-8.12-41.8
			c-2.34,3.26-5.06,6.56-8.19,9.95l2.53,11.7c0,0-0.4,2.38-1.98,4.01l-6.59-9.61c-1.4,1.14-3.13,1.77-4.95,1.77
			c-0.58,0-1.15-0.07-1.7-0.19l6.54,9.54c-9.44,0-33.96,0-37.95,0c-4.6,0-5.52-5.52-5.52-5.52l7.07-32.63
			c-4-0.1-7.38-0.46-10.38-1.11l-10.47,53.89h19.93v51.99c0,5.08,4.12,9.2,9.2,9.2c5.08,0,9.2-4.12,9.2-9.2v-51.99h3.07v51.99
			c0,5.08,4.12,9.2,9.2,9.2s9.2-4.12,9.2-9.2v-51.99h7.51l9.73,14.2c-2.94,6.23-8.19,20.93-2.35,37.66
			c5.07,14.55,29.45-3.77,29.45-3.77S207.84,205.42,196.09,195.45z"/>
		<path class="st1" d="M100.82,118.87c2.06,0,4.27-0.07,6.64-0.21c3.29-0.2,5.81-3.03,5.61-6.32c-0.2-3.3-3.03-5.81-6.32-5.61
			c-2.16,0.13-4.13,0.19-5.93,0.19c-6.67,0.03-10.9-0.91-12.83-1.83c-0.1-0.05-0.2-0.1-0.29-0.14c-0.91-0.47-1.17-0.82-1.25-0.93
			c-0.07-0.13-0.09-0.12-0.11-0.47v-0.01c0-0.01,0-0.01,0-0.02v-0.01c-0.05-0.69,0.54-2.73,2.07-5.05c0.75-1.18,1.7-2.43,2.76-3.67
			l1.53,2.24l-1.4,7.22c2.12,0.48,5.2,0.85,9.22,0.85h0.3c1.58,0,3.26-0.05,5.05-0.14l-2.86-4.17l0.13-0.58L95.9,74.48
			c-2.19,1.52-4.61,3.44-7.06,5.64l-10.8-15.76l-5.26,3.61l11.43,16.67c-0.06,0.06-0.11,0.11-0.17,0.17
			c-2.44,2.62-4.7,5.46-6.48,8.5c-1.75,3.05-3.13,6.35-3.17,10.21c0,0.12,0,0.2,0,0.26c0,0.01,0,0.02,0,0.02
			c0.03,2.29,0.7,4.77,2.12,6.88c1.86,2.77,4.63,4.64,7.9,5.89c0.51,0.19,1.03,0.38,1.56,0.54
			C89.96,118.3,94.77,118.87,100.82,118.87z"/>
	</g>
</g>
</svg>
