<?xml version="1.0" encoding="utf-8"?>
<!-- Generator: Adobe Illustrator 23.0.1, SVG Export Plug-In . SVG Version: 6.00 Build 0)  -->
<svg version="1.1" id="Layer_1" xmlns="http://www.w3.org/2000/svg" xmlns:xlink="http://www.w3.org/1999/xlink" x="0px" y="0px"
	 viewBox="0 0 259.91 259.92" style="enable-background:new 0 0 259.91 259.92;" xml:space="preserve">
<style type="text/css">
	.st0{fill:#FFFFFF;}
	.st1{fill:#939598;}
</style>
<g id="Layer_5">
	<ellipse class="st0" cx="129.97" cy="129.96" rx="129.97" ry="129.97"/>
</g>
<g id="Layer_10">
	<g>
		<g>
			<path class="st1" d="M136.05,38.62l-6.09-11.09l-6.09,11.09l-12.39,2.39l8.63,9.25l-1.57,12.57l11.43-5.38l11.42,5.38
				l-1.57-12.57l8.63-9.25L136.05,38.62z M191.33,49.83l-12.39-2.39l-6.09-11.09l-6.09,11.09l-12.39,2.39l8.63,9.25l-1.57,12.57
				l11.43-5.38l11.42,5.38l-1.57-12.57L191.33,49.83z M226.29,78.26l-12.39-2.39l-6.09-11.09l-6.09,11.09l-12.39,2.39l8.63,9.25
				l-1.57,12.57l11.43-5.38l11.42,5.38l-1.57-12.57L226.29,78.26z M58.21,75.87l-6.09-11.09l-6.09,11.09l-12.39,2.39l8.63,9.25
				l-1.57,12.57l11.43-5.38l11.42,5.38l-1.57-12.57l8.63-9.25L58.21,75.87z M93.16,47.44l-6.09-11.09l-6.09,11.09l-12.39,2.39
				l8.63,9.25l-1.57,12.57l11.43-5.38l11.42,5.38l-1.57-12.57l8.63-9.25L93.16,47.44z"/>
		</g>
	</g>
	<g>
		<g>
			<path class="st1" d="M178.79,132.97c-0.05-8.74-2.93-10.87-7.29-9.87c3.94-0.89,6.07-4.45,2.66-11.41
				c-3.84-7.85-7.36-8.52-10.85-5.73c3.16-2.51,3.54-6.64-2.56-11.44c-6.87-5.41-10.33-4.48-12.27-0.46
				c1.76-3.63,0.31-7.52-7.27-9.2c-8.54-1.9-11.26,0.58-11.26,5.05c0-4.47-2.72-6.95-11.25-5.05c-7.57,1.68-9.03,5.57-7.27,9.2
				c-1.93-4.03-5.39-4.95-12.26,0.46c-6.09,4.8-5.72,8.93-2.56,11.44c-3.49-2.79-7.01-2.13-10.85,5.73
				c-3.41,6.97-1.28,10.53,2.66,11.41c-4.36-1-7.24,1.12-7.29,9.87c-0.05,7.75,3.42,10.04,7.35,9.13
				c-4.36,0.99-6.03,4.15-2.29,12.05c3.32,7.01,7.43,7.57,10.59,5.04c-3.5,2.78-3.64,6.35,3.16,11.85c6.03,4.87,9.98,3.6,11.73-0.04
				l-15.75,53.82l26.89-7.28l6.85-25.63l5.2,22.35l24.77-6.71L148.26,171c1.74,3.64,5.7,4.92,11.73,0.04
				c6.8-5.5,6.66-9.07,3.16-11.85c3.15,2.52,7.26,1.96,10.58-5.04c3.74-7.9,2.07-11.06-2.29-12.05
				C175.37,143.01,178.84,140.72,178.79,132.97z M129.69,166.46c-19.13,0-34.63-15.5-34.63-34.61s15.51-34.61,34.63-34.61
				c19.13,0,34.63,15.5,34.63,34.61C164.33,150.97,148.82,166.46,129.69,166.46z M113.92,122.25c-1.66,0-7.57,1.01-7.57,7.87v12.23
				c0,6.87,5.91,7.62,7.57,7.62s-2.52-1.45-2.52-5.7V128.2C111.4,123.74,115.58,122.25,113.92,122.25z M135.74,122.01
				c-0.33-0.9,8.93-9.17,3.53-15.87c-1.26-1.57-5.55,7.5-11.65,11.61c-3.36,2.27-11.18,7.09-11.18,9.75v17.25
				c0,3.21,12.4,6.6,21.83,6.6c3.45,0,8.46-21.63,8.46-25.06C146.72,122.84,136.07,122.9,135.74,122.01z"/>
		</g>
	</g>
</g>
</svg>
