<svg xmlns="http://www.w3.org/2000/svg" width="142" height="24" viewBox="0 0 142 24"><g><g><path fill="#8cc63f" d="M12.5 0l4.12 7.542 8.378 1.625-5.832 6.286 1.058 8.546-7.724-3.657-7.725 3.657 1.059-8.546L.002 9.167 8.38 7.542 12.5 0m29 0l4.12 7.542 8.378 1.625-5.832 6.286 1.058 8.546-7.724-3.657-7.725 3.657 1.059-8.546-5.832-6.286 8.378-1.625L41.5 0m30 0l4.12 7.542 8.378 1.625-5.832 6.286 1.058 8.546-7.724-3.657-7.725 3.657 1.059-8.546-5.832-6.286 8.378-1.625L71.5 0m29 0l4.12 7.542 8.378 1.625-5.832 6.286 1.058 8.546-7.724-3.657-7.725 3.657 1.059-8.546-5.832-6.286 8.378-1.625L100.5 0m29 0l4.12 7.542 8.378 1.625-5.832 6.286 1.058 8.546-7.724-3.657-7.725 3.657 1.06-8.546-5.833-6.286 8.378-1.625L129.5 0"/></g></g></svg>