<?xml version="1.0" encoding="utf-8"?>
<!-- Generator: Adobe Illustrator 23.0.1, SVG Export Plug-In . SVG Version: 6.00 Build 0)  -->
<svg version="1.1" id="Layer_1" xmlns="http://www.w3.org/2000/svg" xmlns:xlink="http://www.w3.org/1999/xlink" x="0px" y="0px"
	 viewBox="0 0 304 320" style="enable-background:new 0 0 304 320;" xml:space="preserve">
<style type="text/css">
	.st0{fill:#939598;}
</style>
<g>
	<path class="st0" d="M152,163c41,0,78,16,106,43c27,27,45,63,46,104v10h-10H10H0v-10c1-41,19-78,46-104C73,179,111,163,152,163z
		 M244,220c-24-23-56-37-92-37s-68,14-92,37c-22,21-36,49-39,80h263C281,269,266,240,244,220z"/>
	<path class="st0" d="M152,0c41,0,75,33,75,75c0,41-34,75-75,75s-75-33-75-75C77,34,110,0,152,0z M152,20c-30,0-55,25-55,55
		s25,55,55,55s55-25,55-55S182,20,152,20z"/>
</g>
</svg>
