<svg xmlns="http://www.w3.org/2000/svg" width="19" height="18" viewBox="0 0 19 18"><g><g><path fill="#f6f6f6" d="M2.06.001c1.139 0 2.061.95 2.061 2.12 0 1.17-.922 2.12-2.06 2.12-1.139 0-2.062-.95-2.062-2.12C0 .951.922.001 2.06.001zM.245 5.577h3.999V17.99h-4zm10.7-.075v1.842c.38-.594 1.121-2.045 3.574-2.07 4.49 0 4.469 5.022 4.469 6.195l-.049 6.509-3.974-.012s.014-5.988.006-6.872c.018-.282-.016-2.312-1.846-2.312-2.473 0-2.184 2.548-2.184 2.548v6.61H6.893V5.502zm4.02 5.6c.002-.16.004-.148.006-.008-.003.039-.006.045-.006.008z"/></g></g></svg>