<svg xmlns="http://www.w3.org/2000/svg" width="18" height="24" viewBox="0 0 18 24"><g><g><path fill="#f6f6f6" d="M1.204 11.14c.192.003.363.066 4.174 1.663.003 0 1.114.46 1.114.46.402.153.647.58.622 1.059-.026.47-.29.837-.684.938-.006.004-1.583.513-1.583.513-3.546 1.16-3.664 1.193-3.852 1.183-.295-.01-.553-.187-.706-.484-.111-.215-.188-.574-.235-1.004-.133-1.308.03-3.275.413-3.9.18-.289.443-.439.737-.428zm7.118 12.862c-.948.164-3.918-.946-4.536-1.694a.926.926 0 0 1-.216-.49.762.762 0 0 1 .042-.349c.065-.189.175-.336 2.847-3.522.003 0 .78-.938.78-.938.265-.338.739-.445 1.18-.273.428.17.688.542.663.951l-.01 1.691c-.01 3.786-.017 3.912-.079 4.093-.103.282-.341.47-.671.531zm6.693-1.85c-.31.128-.608.097-.842-.09-.152-.12-.312-.366-2.416-3.839l-.627-1.034c-.239-.372-.192-.86.106-1.232.29-.363.72-.5 1.095-.352.02.01 1.575.532 1.575.532 3.544 1.182 3.66 1.227 3.81 1.342.229.186.333.477.286.815-.137.971-2.092 3.496-2.987 3.859zm-3.03-8.618a.573.573 0 0 0 .02-.034c-.402.113-.842-.084-1.101-.487-.25-.39-.248-.846.01-1.163.01-.012.986-1.362.986-1.362 2.156-2.997 2.271-3.152 2.427-3.256.25-.17.553-.18.855-.033.853.424 2.588 3.039 2.691 4.043.002.013 0 .023 0 .034.021.342-.101.621-.345.787-.16.106-.314.16-4.343 1.15-.647.156-1.002.244-1.2.321zM8.43 11.461c-.192.06-.778.244-1.499-.941 0 0-4.87-7.785-4.985-8.026-.07-.269.017-.575.25-.823.73-.764 4.66-1.883 5.687-1.624.336.087.568.303.65.606.058.335.537 7.559.606 9.18.067 1.384-.517 1.567-.709 1.628z"/></g></g></svg>