<svg xmlns="http://www.w3.org/2000/svg" width="26" height="27" viewBox="0 0 26 27">
  <metadata><?xpacket begin="﻿" id="W5M0MpCehiHzreSzNTczkc9d"?>
<x:xmpmeta xmlns:x="adobe:ns:meta/" x:xmptk="Adobe XMP Core 5.6-c138 79.159824, 2016/09/14-01:09:01        ">
   <rdf:RDF xmlns:rdf="http://www.w3.org/1999/02/22-rdf-syntax-ns#">
      <rdf:Description rdf:about=""/>
   </rdf:RDF>
</x:xmpmeta>
                                                                                                    
                                                                                                    
                                                                                                    
                                                                                                    
                                                                                                    
                                                                                                    
                                                                                                    
                                                                                                    
                                                                                                    
                                                                                                    
                                                                                                    
                                                                                                    
                                                                                                    
                                                                                                    
                                                                                                    
                                                                                                    
                                                                                                    
                                                                                                    
                                                                                                    
                                                                                                    
                           
<?xpacket end="w"?></metadata>
<defs>
    <style>
      .cls-1 {
        fill: #8DC63F;
        fill-rule: evenodd;
      }
    </style>
  </defs>
  <path class="cls-1" d="M1556,35.753a13.057,13.057,0,0,1,9.07,3.628,12.794,12.794,0,0,1,3.93,8.775V49h-26V48.156a12.589,12.589,0,0,1,3.93-8.775A12.9,12.9,0,0,1,1556,35.753Zm7.87,4.81a11.48,11.48,0,0,0-15.74,0,10.635,10.635,0,0,0-3.33,6.75h22.49A10.586,10.586,0,0,0,1563.87,40.562ZM1556,22a6.329,6.329,0,1,1-6.41,6.328A6.357,6.357,0,0,1,1556,22Zm0,1.687a4.641,4.641,0,1,0,4.7,4.641A4.708,4.708,0,0,0,1556,23.687Z" transform="translate(-1543 -22)"/>
</svg>
