<svg xmlns="http://www.w3.org/2000/svg" width="142" height="24" viewBox="0 0 142 24">
  <metadata><?xpacket begin="﻿" id="W5M0MpCehiHzreSzNTczkc9d"?>
<x:xmpmeta xmlns:x="adobe:ns:meta/" x:xmptk="Adobe XMP Core 5.6-c138 79.159824, 2016/09/14-01:09:01        ">
   <rdf:RDF xmlns:rdf="http://www.w3.org/1999/02/22-rdf-syntax-ns#">
      <rdf:Description rdf:about=""/>
   </rdf:RDF>
</x:xmpmeta>
                                                                                                    
                                                                                                    
                                                                                                    
                                                                                                    
                                                                                                    
                                                                                                    
                                                                                                    
                                                                                                    
                                                                                                    
                                                                                                    
                                                                                                    
                                                                                                    
                                                                                                    
                                                                                                    
                                                                                                    
                                                                                                    
                                                                                                    
                                                                                                    
                                                                                                    
                                                                                                    
                           
<?xpacket end="w"?></metadata>
<defs>
    <style>
      .cls-1 {
        fill: #8cc63f;
        fill-rule: evenodd;
      }
    </style>
  </defs>
  <path class="cls-1" d="M995.5,3678l4.12,7.54,8.38,1.63-5.83,6.28,1.05,8.55-7.72-3.66-7.725,3.66,1.059-8.55L983,3687.17l8.378-1.63,4.12-7.54m29,0,4.12,7.54,8.38,1.63-5.83,6.28,1.05,8.55-7.72-3.66-7.72,3.66,1.05-8.55-5.83-6.28,8.38-1.63,4.12-7.54m30,0,4.12,7.54,8.38,1.63-5.83,6.28,1.05,8.55-7.72-3.66-7.72,3.66,1.05-8.55-5.83-6.28,8.38-1.63,4.12-7.54m29,0,4.12,7.54,8.38,1.63-5.83,6.28,1.05,8.55-7.72-3.66-7.72,3.66,1.05-8.55-5.83-6.28,8.38-1.63,4.12-7.54m29,0,4.12,7.54,8.38,1.63-5.83,6.28,1.05,8.55-7.72-3.66-7.72,3.66,1.05-8.55-5.83-6.28,8.38-1.63,4.12-7.54" transform="translate(-983 -3678)"/>
</svg>
