<svg xmlns="http://www.w3.org/2000/svg" width="18" height="23.97" viewBox="0 0 18 23.97">
  <metadata><?xpacket begin="﻿" id="W5M0MpCehiHzreSzNTczkc9d"?>
<x:xmpmeta xmlns:x="adobe:ns:meta/" x:xmptk="Adobe XMP Core 5.6-c138 79.159824, 2016/09/14-01:09:01        ">
   <rdf:RDF xmlns:rdf="http://www.w3.org/1999/02/22-rdf-syntax-ns#">
      <rdf:Description rdf:about=""/>
   </rdf:RDF>
</x:xmpmeta>
                                                                                                    
                                                                                                    
                                                                                                    
                                                                                                    
                                                                                                    
                                                                                                    
                                                                                                    
                                                                                                    
                                                                                                    
                                                                                                    
                                                                                                    
                                                                                                    
                                                                                                    
                                                                                                    
                                                                                                    
                                                                                                    
                                                                                                    
                                                                                                    
                                                                                                    
                                                                                                    
                           
<?xpacket end="w"?></metadata>
<defs>
    <style>
      .cls-1 {
        fill: #f6f6f6;
        fill-rule: evenodd;
      }
    </style>
  </defs>
  <path id="Yelp_-_Medium" data-name="Yelp - Medium" class="cls-1" d="M1510.47,4419.57a8.668,8.668,0,0,0-.42,3.9,3.167,3.167,0,0,0,.24,1,0.826,0.826,0,0,0,.71.49c0.18,0.01.3-.03,3.85-1.19,0,0,1.57-.51,1.58-0.51a0.963,0.963,0,0,0,.68-0.94,1.042,1.042,0,0,0-.62-1.06l-1.11-.46c-3.81-1.59-3.98-1.66-4.18-1.66A0.818,0.818,0,0,0,1510.47,4419.57Zm8.52,11.9a26.225,26.225,0,0,0,.08-4.09s0.01-1.68.01-1.69a0.962,0.962,0,0,0-.66-0.95,0.994,0.994,0,0,0-1.18.27l-0.78.94c-2.67,3.18-2.78,3.33-2.85,3.52a0.824,0.824,0,0,0-.04.35,0.973,0.973,0,0,0,.22.49,8.129,8.129,0,0,0,4.53,1.69A0.83,0.83,0,0,0,1518.99,4431.47Zm6.03-1.32a8.333,8.333,0,0,0,2.98-3.86,0.86,0.86,0,0,0-.28-0.81c-0.15-.12-0.27-0.16-3.81-1.34,0,0-1.56-.52-1.58-0.53a0.936,0.936,0,0,0-1.09.35,1.045,1.045,0,0,0-.11,1.23l0.63,1.03c2.1,3.48,2.26,3.72,2.41,3.84a0.808,0.808,0,0,0,.85.09h0Zm-1.83-8.94c4.02-.99,4.18-1.04,4.34-1.15a0.834,0.834,0,0,0,.34-0.78v-0.04a8.409,8.409,0,0,0-2.69-4.04,0.809,0.809,0,0,0-.85.03,25.921,25.921,0,0,0-2.43,3.26s-0.98,1.35-.99,1.36a0.989,0.989,0,0,0-.01,1.16,1.014,1.014,0,0,0,1.11.49,0.085,0.085,0,0,1-.03.03C1522.18,4421.46,1522.54,4421.37,1523.19,4421.21Zm-4.05-3.38h0c-0.07-1.62-.55-8.84-0.61-9.18a0.834,0.834,0,0,0-.65-0.6c-1.02-.26-4.95.86-5.68,1.62a0.871,0.871,0,0,0-.25.82c0.11,0.24,4.98,8.03,4.98,8.03,0.72,1.19,1.31,1,1.5.94S1519.21,4419.22,1519.14,4417.83Z" transform="translate(-1510 -4408.03)"/>
</svg>
